<svg width="40" height="41" viewBox="0 0 40 41" fill="none" xmlns="http://www.w3.org/2000/svg">
<path d="M22.4262 18.28C23.4299 19.4976 23.2565 21.2983 22.0389 22.302C20.8213 23.3057 19.0206 23.1323 18.0169 21.9147C17.0132 20.6972 17.1866 18.8964 18.4042 17.8927C19.6218 16.889 21.4225 17.0624 22.4262 18.28Z" fill="#212121"/>
<path fill-rule="evenodd" clip-rule="evenodd" d="M27.8545 29.3569C32.5192 25.5115 33.5349 18.8809 30.4777 13.8645L25.0545 18.335C25.7803 20.3254 25.2206 22.6414 23.4928 24.0657C21.7649 25.4901 19.3847 25.5975 17.5694 24.5053L12.1462 28.9758C16.4871 32.934 23.1897 33.2022 27.8545 29.3569ZM15.3886 21.8597L9.96539 26.3302C6.90822 21.3139 7.92383 14.6832 12.5886 10.8379C17.2534 6.99255 23.956 7.26079 28.2968 11.219L22.8737 15.6895C21.0583 14.5973 18.6781 14.7047 16.9503 16.129C15.2224 17.5534 14.6628 19.8693 15.3886 21.8597ZM22.4262 18.28C23.4299 19.4976 23.2565 21.2983 22.0389 22.302C20.8213 23.3057 19.0206 23.1323 18.0169 21.9147C17.0132 20.6972 17.1866 18.8964 18.4042 17.8927C19.6218 16.889 21.4225 17.0624 22.4262 18.28Z" fill="#212121"/>
</svg>
